<?xml version="1.0" encoding="UTF-8" standalone="no"?>
<svg
   xmlns:dc="http://purl.org/dc/elements/1.1/"
   xmlns:cc="http://creativecommons.org/ns#"
   xmlns:rdf="http://www.w3.org/1999/02/22-rdf-syntax-ns#"
   xmlns:svg="http://www.w3.org/2000/svg"
   xmlns="http://www.w3.org/2000/svg"
   viewBox="0 0 706.66669 266.66666"
   height="266.66666"
   width="706.66669"
   xml:space="preserve"
   id="svg2"
   version="1.1"><metadata
     id="metadata8"><rdf:RDF><cc:Work
         rdf:about=""><dc:format>image/svg+xml</dc:format><dc:type
           rdf:resource="http://purl.org/dc/dcmitype/StillImage" /></cc:Work></rdf:RDF></metadata><defs
     id="defs6" /><g
     transform="matrix(1.3333333,0,0,-1.3333333,0,266.66667)"
     id="g10"><g
       transform="scale(0.1)"
       id="g12"><path
         id="path14"
         style="fill:#00a650;fill-opacity:1;fill-rule:evenodd;stroke:none"
         d="M 625.051,1126.43 549.844,757.176 H 697 L 621.211,1126.43 Z M 369.527,1407.35 H 975.988 V 1112.23 H 890.043 L 1064.1,462.172 h 69.65 V 179.555 H 692.516 l -2.317,282.617 h 79.692 L 736.109,605.895 H 512.262 L 474.645,462.172 h 74.492 V 179.555 H 217.535 v 282.617 h 66.184 l 164.836,650.058 h -79.028 v 295.12" /><path
         id="path16"
         style="fill:none;stroke:#00a650;stroke-width:2.16000009;stroke-linecap:butt;stroke-linejoin:miter;stroke-miterlimit:22.92560005;stroke-dasharray:none;stroke-opacity:1"
         d="M 625.051,1126.43 549.844,757.176 H 697 L 621.211,1126.43 Z M 369.527,1407.35 H 975.988 V 1112.23 H 890.043 L 1064.1,462.172 h 69.65 V 179.555 H 692.516 l -2.317,282.617 h 79.692 L 736.109,605.895 H 512.262 L 474.645,462.172 h 74.492 V 179.555 H 217.535 v 282.617 h 66.184 l 164.836,650.058 h -79.028 z" /><path
         id="path18"
         style="fill:#00a650;fill-opacity:1;fill-rule:evenodd;stroke:none"
         d="m 4569.63,1126.43 -75.2,-369.254 h 147.16 l -75.8,369.254 z m -255.52,280.92 h 606.46 v -295.12 h -85.94 l 174.05,-650.058 h 69.65 V 179.555 H 4637.1 l -2.31,282.617 h 79.68 l -33.78,143.723 h -223.85 l -37.61,-143.723 h 74.49 V 179.555 h -331.6 v 282.617 h 66.18 l 164.84,650.058 h -79.03 v 295.12" /><path
         id="path20"
         style="fill:none;stroke:#00a650;stroke-width:2.16000009;stroke-linecap:butt;stroke-linejoin:miter;stroke-miterlimit:22.92560005;stroke-dasharray:none;stroke-opacity:1"
         d="m 4569.63,1126.43 -75.2,-369.254 h 147.16 l -75.8,369.254 z m -255.52,280.92 h 606.46 v -295.12 h -85.94 l 174.05,-650.058 h 69.65 V 179.555 H 4637.1 l -2.31,282.617 h 79.68 l -33.78,143.723 h -223.85 l -37.61,-143.723 h 74.49 V 179.555 h -331.6 v 282.617 h 66.18 l 164.84,650.058 h -79.03 z" /><path
         id="path22"
         style="fill:#00a650;fill-opacity:1;fill-rule:evenodd;stroke:none"
         d="m 1782.63,179.832 h -198.11 v 136.574 h 30.5 l -4,311.457 -112.4,-448.484 h -57.72 l -121.46,447.57 V 316.406 h 30.85 V 179.832 h -148.48 v 136.574 h 30.5 v 288.578 h -30.5 v 152.059 h 209.96 l 80.98,-222.055 79.92,222.055 h 209.96 V 604.984 h -30.51 V 316.406 h 30.51 V 179.832" /><path
         id="path24"
         style="fill:none;stroke:#00a650;stroke-width:2.16000009;stroke-linecap:butt;stroke-linejoin:miter;stroke-miterlimit:22.92560005;stroke-dasharray:none;stroke-opacity:1"
         d="m 1782.63,179.832 h -198.11 v 136.574 h 30.5 l -4,311.457 -112.4,-448.484 h -57.72 l -121.46,447.57 V 316.406 h 30.85 V 179.832 h -148.48 v 136.574 h 30.5 v 288.578 h -30.5 v 152.059 h 209.96 l 80.98,-222.055 79.92,222.055 h 209.96 V 604.984 h -30.51 V 316.406 h 30.51 z" /><path
         id="path26"
         style="fill:#00a650;fill-opacity:1;fill-rule:evenodd;stroke:none"
         d="M 2237.07,179.379 H 1872.71 V 317.84 h 34.21 v 287.332 h -34.21 v 152.285 h 364.36 V 564.449 h -97.69 v 40.723 h -79.56 v -71.867 h 62.61 V 403.793 h -62.61 V 317.84 h 81.13 v 42.351 h 96.12 V 179.379" /><path
         id="path28"
         style="fill:none;stroke:#00a650;stroke-width:2.16000009;stroke-linecap:butt;stroke-linejoin:miter;stroke-miterlimit:22.92560005;stroke-dasharray:none;stroke-opacity:1"
         d="M 2237.07,179.379 H 1872.71 V 317.84 h 34.21 v 287.332 h -34.21 v 152.285 h 364.36 V 564.449 h -97.69 v 40.723 h -79.56 v -71.867 h 62.61 V 403.793 h -62.61 V 317.84 h 81.13 v 42.351 h 96.12 z" /><path
         id="path30"
         style="fill:#00a650;fill-opacity:1;fill-rule:evenodd;stroke:none"
         d="m 3574.78,607.188 h -31.65 L 3441.82,408.656 v -94.574 h 33.2 V 179.824 h -232.27 v 134.258 l 52.36,1.902 v 90.77 l -116.46,198.531 h -32.43 v 152.172 h 215.39 V 605.285 h -29.47 l 49.97,-87.219 60.71,87.219 h -28.69 v 152.172 h 160.65 V 607.188" /><path
         id="path32"
         style="fill:none;stroke:#00a650;stroke-width:2.16000009;stroke-linecap:butt;stroke-linejoin:miter;stroke-miterlimit:22.92560005;stroke-dasharray:none;stroke-opacity:1"
         d="m 3574.78,607.188 h -31.65 L 3441.82,408.656 v -94.574 h 33.2 V 179.824 h -232.27 v 134.258 l 52.36,1.902 v 90.77 l -116.46,198.531 h -32.43 v 152.172 h 215.39 V 605.285 h -29.47 l 49.97,-87.219 60.71,87.219 h -28.69 v 152.172 h 160.65 z" /><path
         id="path34"
         style="fill:#00a650;fill-opacity:1;fill-rule:evenodd;stroke:none"
         d="m 4092.17,181.184 h -218.6 v 142.269 h 23.9 l -86.79,143.531 V 323.453 h 31.62 V 181.184 h -219.81 v 142.269 h 31.26 v 282.192 h -31.26 v 151.808 h 216.55 V 605.645 h -28.36 v -97.723 l 98.75,99.914 -24.48,-2.191 V 757.453 H 4076.9 V 605.645 h -25.56 l -79.1,-88.641 95.09,-193.551 h 24.84 V 181.184" /><path
         id="path36"
         style="fill:none;stroke:#00a650;stroke-width:2.16000009;stroke-linecap:butt;stroke-linejoin:miter;stroke-miterlimit:22.92560005;stroke-dasharray:none;stroke-opacity:1"
         d="m 4092.17,181.184 h -218.6 v 142.269 h 23.9 l -86.79,143.531 V 323.453 h 31.62 V 181.184 h -219.81 v 142.269 h 31.26 v 282.192 h -31.26 v 151.808 h 216.55 V 605.645 h -28.36 v -97.723 l 98.75,99.914 -24.48,-2.191 V 757.453 H 4076.9 V 605.645 h -25.56 l -79.1,-88.641 95.09,-193.551 h 24.84 z" /><path
         id="path38"
         style="fill:#00a650;fill-opacity:1;fill-rule:evenodd;stroke:none"
         d="M 8.23828,8.94531 H 5290.4183 v 109.012 H 8.23828 Z" /><path
         id="path40"
         style="fill:none;stroke:#00a650;stroke-width:2.16000009;stroke-linecap:butt;stroke-linejoin:miter;stroke-miterlimit:22.92560005;stroke-dasharray:none;stroke-opacity:1"
         d="M 8.23828,8.94531 H 5290.4183 v 109.012 H 8.23828 Z" /><path
         id="path42"
         style="fill:#ed1c24;fill-opacity:1;fill-rule:evenodd;stroke:none"
         d="m 5287.88,1111.98 -677.47,883.15 -293.92,-384.99 H 2842.25 L 2683.07,1770.38 2520.86,1608.95 973.93,1610.14 681.762,1991.49 8.01563,1112.2 H 136.02 l 545.742,709.43 316.355,-414.7 h 131.923 l -74.65,96.77 h 1359.64 l -94.86,-97.53 h 144.71 l 218.19,217.51 221.01,-217.79 h 144.87 l -98.77,97.81 h 1287.2 l -74.06,-97.38 128.02,0.01 322.2,425.34 550.22,-719.95 124.12,0.26" /><path
         id="path44"
         style="fill:none;stroke:#ff0000;stroke-width:2.16000009;stroke-linecap:butt;stroke-linejoin:miter;stroke-miterlimit:22.92560005;stroke-dasharray:none;stroke-opacity:1"
         d="m 5287.88,1111.98 -677.47,883.15 -293.92,-384.99 H 2842.25 L 2683.07,1770.38 2520.86,1608.95 973.93,1610.14 681.762,1991.49 8.01563,1112.2 H 136.02 l 545.742,709.43 316.355,-414.7 h 131.923 l -74.65,96.77 h 1359.64 l -94.86,-97.53 h 144.71 l 218.19,217.51 221.01,-217.79 h 144.87 l -98.77,97.81 h 1287.2 l -74.06,-97.38 128.02,0.01 322.2,425.34 550.22,-719.95 z" /><path
         id="path46"
         style="fill:#ed1c24;fill-opacity:1;fill-rule:evenodd;stroke:none"
         d="m 2290.71,1286.42 h 488.91 c 60.31,0 116.39,-8.83 167.78,-26.23 51.39,-17.4 97.19,-36.65 120.63,-71.53 103.35,-153.72 138.01,-335.922 -19.09,-512.008 25.75,-82.925 66.68,-205.918 92.58,-205.918 h 55 V 179.957 h -111.07 c -58.18,0 -175.15,-7.644 -206.09,32.426 -65.2,84.43 -119.94,374.457 -136.91,374.457 h -59.98 V 471.305 l 48.71,0.004 V 179.957 h -437.91 v 291.051 h 63.63 v 523.871 h -66.19 v 291.541" /><path
         id="path48"
         style="fill:none;stroke:#ed1c24;stroke-width:2.16000009;stroke-linecap:butt;stroke-linejoin:miter;stroke-miterlimit:22.92560005;stroke-dasharray:none;stroke-opacity:1"
         d="m 2290.71,1286.42 h 488.91 c 60.31,0 116.39,-8.83 167.78,-26.23 51.39,-17.4 97.19,-36.65 120.63,-71.53 103.35,-153.72 138.01,-335.922 -19.09,-512.008 25.75,-82.925 66.68,-205.918 92.58,-205.918 h 55 V 179.957 h -111.07 c -58.18,0 -175.15,-7.644 -206.09,32.426 -65.2,84.43 -119.94,374.457 -136.91,374.457 h -59.98 V 471.305 l 48.71,0.004 V 179.957 h -437.91 v 291.051 h 63.63 v 523.871 h -66.19 z" /><path
         id="path50"
         style="fill:#ffffff;fill-opacity:1;fill-rule:evenodd;stroke:none"
         d="m 2375.57,1201.16 h 396.48 c 48.92,0 94.39,-7.5 136.07,-22.3 41.68,-14.8 78.81,-31.16 97.83,-60.82 83.81,-130.677 88.85,-281.743 -38.56,-431.446 20.89,-70.504 86.13,-301.989 107.14,-301.989 h 35.61 V 260.742 h -90.07 c -47.18,0 -54.47,-4.097 -79.56,29.961 -52.87,71.766 -122,379.688 -144.72,379.414 L 2599.8,667.723 V 384.086 h 56.54 V 260.742 h -278.7 v 123.281 h 51.6 v 695.157 h -53.67 v 121.98" /><path
         id="path52"
         style="fill:none;stroke:#ed1c24;stroke-width:2.16000009;stroke-linecap:butt;stroke-linejoin:miter;stroke-miterlimit:22.92560005;stroke-dasharray:none;stroke-opacity:1"
         d="m 2375.57,1201.16 h 396.48 c 48.92,0 94.39,-7.5 136.07,-22.3 41.68,-14.8 78.81,-31.16 97.83,-60.82 83.81,-130.677 88.85,-281.743 -38.56,-431.446 20.89,-70.504 86.13,-301.989 107.14,-301.989 h 35.61 V 260.742 h -90.07 c -47.18,0 -54.47,-4.097 -79.56,29.961 -52.87,71.766 -122,379.688 -144.72,379.414 L 2599.8,667.723 V 384.086 h 56.54 V 260.742 h -278.7 v 123.281 h 51.6 v 695.157 h -53.67 z" /><path
         id="path54"
         style="fill:#ed1c24;fill-opacity:1;fill-rule:evenodd;stroke:none"
         d="M 2600.52,1112.08 V 757.898 h 133.83 c 59.44,0 101.11,9.942 125.84,29.426 24.58,19.356 37.31,52.074 37.31,97.719 v 112.82 c 0,57.337 -44.29,114.217 -131.53,114.217 h -165.45" /><path
         id="path56"
         style="fill:none;stroke:#ed1c24;stroke-width:2.16000009;stroke-linecap:butt;stroke-linejoin:miter;stroke-miterlimit:22.92560005;stroke-dasharray:none;stroke-opacity:1"
         d="M 2600.52,1112.08 V 757.898 h 133.83 c 59.44,0 101.11,9.942 125.84,29.426 24.58,19.356 37.31,52.074 37.31,97.719 v 112.82 c 0,57.337 -44.29,114.217 -131.53,114.217 z" /><path
         id="path58"
         style="fill:#ffffff;fill-opacity:1;fill-rule:evenodd;stroke:none"
         d="M 2683.11,1023.68 V 840.813 h 57.7 c 26.12,0 44.42,4.839 55.3,14.3 10.79,9.407 16.39,25.313 16.39,47.489 v 65.574 c 0,27.859 -19.46,55.504 -57.79,55.504 h -71.6" /><path
         id="path60"
         style="fill:none;stroke:#ed1c24;stroke-width:2.16000009;stroke-linecap:butt;stroke-linejoin:miter;stroke-miterlimit:22.92560005;stroke-dasharray:none;stroke-opacity:1"
         d="M 2683.11,1023.68 V 840.813 h 57.7 c 26.12,0 44.42,4.839 55.3,14.3 10.79,9.407 16.39,25.313 16.39,47.489 v 65.574 c 0,27.859 -19.46,55.504 -57.79,55.504 z" /></g></g></svg>