<?xml version="1.0" encoding="UTF-8" standalone="no"?>
<!DOCTYPE svg PUBLIC "-//W3C//DTD SVG 1.1//EN" "http://www.w3.org/Graphics/SVG/1.1/DTD/svg11.dtd">
<svg width="100%" height="100%" viewBox="0 0 707 267" version="1.1" xmlns="http://www.w3.org/2000/svg" xmlns:xlink="http://www.w3.org/1999/xlink" xml:space="preserve" xmlns:serif="http://www.serif.com/" style="fill-rule:evenodd;clip-rule:evenodd;stroke-linejoin:round;stroke-miterlimit:2;">
    <g id="g12" transform="matrix(0.133333,0,0,-0.133333,0,266.667)">
        <path id="path14" d="M625.051,1126.43L549.844,757.176L697,757.176L621.211,1126.43L625.051,1126.43ZM369.527,1407.35L975.988,1407.35L975.988,1112.23L890.043,1112.23L1064.1,462.172L1133.75,462.172L1133.75,179.555L692.516,179.555L690.199,462.172L769.891,462.172L736.109,605.895L512.262,605.895L474.645,462.172L549.137,462.172L549.137,179.555L217.535,179.555L217.535,462.172L283.719,462.172L448.555,1112.23L369.527,1112.23L369.527,1407.35" style="fill:rgb(0,136,91);"/>
        <path id="path18" d="M4569.63,1126.43L4494.43,757.176L4641.59,757.176L4565.79,1126.43L4569.63,1126.43ZM4314.11,1407.35L4920.57,1407.35L4920.57,1112.23L4834.63,1112.23L5008.68,462.172L5078.33,462.172L5078.33,179.555L4637.1,179.555L4634.79,462.172L4714.47,462.172L4680.69,605.895L4456.84,605.895L4419.23,462.172L4493.72,462.172L4493.72,179.555L4162.12,179.555L4162.12,462.172L4228.3,462.172L4393.14,1112.23L4314.11,1112.23L4314.11,1407.35" style="fill:rgb(0,136,91);"/>
        <path id="path22" d="M1782.63,179.832L1584.52,179.832L1584.52,316.406L1615.02,316.406L1611.02,627.863L1498.62,179.379L1440.9,179.379L1319.44,626.949L1319.44,316.406L1350.29,316.406L1350.29,179.832L1201.81,179.832L1201.81,316.406L1232.31,316.406L1232.31,604.984L1201.81,604.984L1201.81,757.043L1411.77,757.043L1492.75,534.988L1572.67,757.043L1782.63,757.043L1782.63,604.984L1752.12,604.984L1752.12,316.406L1782.63,316.406L1782.63,179.832" style="fill:rgb(0,136,91);"/>
        <path id="path26" d="M2237.07,179.379L1872.71,179.379L1872.71,317.84L1906.92,317.84L1906.92,605.172L1872.71,605.172L1872.71,757.457L2237.07,757.457L2237.07,564.449L2139.38,564.449L2139.38,605.172L2059.82,605.172L2059.82,533.305L2122.43,533.305L2122.43,403.793L2059.82,403.793L2059.82,317.84L2140.95,317.84L2140.95,360.191L2237.07,360.191L2237.07,179.379" style="fill:rgb(0,136,91);"/>
        <path id="path30" d="M3574.78,607.188L3543.13,607.188L3441.82,408.656L3441.82,314.082L3475.02,314.082L3475.02,179.824L3242.75,179.824L3242.75,314.082L3295.11,315.984L3295.11,406.754L3178.65,605.285L3146.22,605.285L3146.22,757.457L3361.61,757.457L3361.61,605.285L3332.14,605.285L3382.11,518.066L3442.82,605.285L3414.13,605.285L3414.13,757.457L3574.78,757.457L3574.78,607.188" style="fill:rgb(0,136,91);"/>
        <path id="path34" d="M4092.17,181.184L3873.57,181.184L3873.57,323.453L3897.47,323.453L3810.68,466.984L3810.68,323.453L3842.3,323.453L3842.3,181.184L3622.49,181.184L3622.49,323.453L3653.75,323.453L3653.75,605.645L3622.49,605.645L3622.49,757.453L3839.04,757.453L3839.04,605.645L3810.68,605.645L3810.68,507.922L3909.43,607.836L3884.95,605.645L3884.95,757.453L4076.9,757.453L4076.9,605.645L4051.34,605.645L3972.24,517.004L4067.33,323.453L4092.17,323.453L4092.17,181.184" style="fill:rgb(0,136,91);"/>
        <rect id="path38" x="8.238" y="8.945" width="5282.18" height="109.012" style="fill:rgb(0,136,91);"/>
        <path id="path44" d="M5287.88,1111.98L4610.41,1995.13L4316.49,1610.14L2842.25,1610.14L2683.07,1770.38L2520.86,1608.95L973.93,1610.14L681.762,1991.49L8.016,1112.2L136.02,1112.2L681.762,1821.63L998.117,1406.93L1130.04,1406.93L1055.39,1503.7L2415.03,1503.7L2320.17,1406.17L2464.88,1406.17L2683.07,1623.68L2904.08,1405.89L3048.95,1405.89L2950.18,1503.7L4237.38,1503.7L4163.32,1406.32L4291.34,1406.33L4613.54,1831.67L5163.76,1111.72L5287.88,1111.98Z" style="fill:rgb(210,7,56);fill-rule:nonzero;"/>
        <path id="path46" d="M2290.71,1286.42L2779.62,1286.42C2839.93,1286.42 2896.01,1277.59 2947.4,1260.19C2998.79,1242.79 3044.59,1223.54 3068.03,1188.66C3171.38,1034.94 3206.04,852.738 3048.94,676.652C3074.69,593.727 3115.62,470.734 3141.52,470.734L3196.52,470.734L3196.52,179.957L3085.45,179.957C3027.27,179.957 2910.3,172.313 2879.36,212.383C2814.16,296.813 2759.42,586.84 2742.45,586.84L2682.47,586.84L2682.47,471.305L2731.18,471.309L2731.18,179.957L2293.27,179.957L2293.27,471.008L2356.9,471.008L2356.9,994.879L2290.71,994.879L2290.71,1286.42" style="fill:rgb(210,7,56);"/>
        <path id="path50" d="M2375.57,1201.16L2772.05,1201.16C2820.97,1201.16 2866.44,1193.66 2908.12,1178.86C2949.8,1164.06 2986.93,1147.7 3005.95,1118.04C3089.76,987.363 3094.8,836.297 2967.39,686.594C2988.28,616.09 3053.52,384.605 3074.53,384.605L3110.14,384.605L3110.14,260.742L3020.07,260.742C2972.89,260.742 2965.6,256.645 2940.51,290.703C2887.64,362.469 2818.51,670.391 2795.79,670.117L2599.8,667.723L2599.8,384.086L2656.34,384.086L2656.34,260.742L2377.64,260.742L2377.64,384.023L2429.24,384.023L2429.24,1079.18L2375.57,1079.18L2375.57,1201.16" style="fill:white;"/>
        <path id="path54" d="M2600.52,1112.08L2600.52,757.898L2734.35,757.898C2793.79,757.898 2835.46,767.84 2860.19,787.324C2884.77,806.68 2897.5,839.398 2897.5,885.043L2897.5,997.863C2897.5,1055.2 2853.21,1112.08 2765.97,1112.08L2600.52,1112.08" style="fill:rgb(210,7,56);"/>
        <path id="path58" d="M2683.11,1023.68L2683.11,840.813L2740.81,840.813C2766.93,840.813 2785.23,845.652 2796.11,855.113C2806.9,864.52 2812.5,880.426 2812.5,902.602L2812.5,968.176C2812.5,996.035 2793.04,1023.68 2754.71,1023.68L2683.11,1023.68" style="fill:white;"/>
    </g>
</svg>
